<svg width="163" height="75" viewBox="0 0 163 75" fill="none" xmlns="http://www.w3.org/2000/svg">
<g clip-path="url(#clip0_1545_4)">
<path d="M5.99138 71.3116C5.97071 71.248 5.91572 71.2016 5.84951 71.192L3.98948 70.9217L3.15763 69.2362C3.12803 69.1762 3.06691 69.1382 3.00001 69.1382C2.9331 69.1382 2.87199 69.1762 2.84238 69.2362L2.01049 70.9217L0.150502 71.192C0.0843028 71.2016 0.0292835 71.248 0.0086117 71.3116C-0.0120718 71.3753 0.00517812 71.4451 0.0530959 71.4918L1.39897 72.8038L1.0813 74.6563C1.06997 74.7222 1.09709 74.7889 1.15122 74.8282C1.18184 74.8505 1.21811 74.8618 1.25456 74.8618C1.28254 74.8618 1.31062 74.8551 1.33633 74.8416L3 73.9669L4.6636 74.8416C4.72284 74.8727 4.79459 74.8675 4.84872 74.8282C4.90285 74.7889 4.92998 74.7222 4.91867 74.6563L4.60089 72.8038L5.94691 71.4918C5.99482 71.4451 6.01208 71.3753 5.99138 71.3116Z" fill="white"/>
</g>
<g clip-path="url(#clip1_1545_4)">
<path d="M20.9785 38.779C20.9268 38.6199 20.7893 38.504 20.6238 38.48L15.9737 37.8042L13.8941 33.5906C13.8201 33.4406 13.6673 33.3456 13.5 33.3456C13.3327 33.3456 13.18 33.4406 13.106 33.5906L11.0262 37.8042L6.37625 38.48C6.21076 38.504 6.07321 38.6199 6.02153 38.779C5.96982 38.9381 6.01295 39.1128 6.13274 39.2295L9.49741 42.5094L8.70324 47.1407C8.67494 47.3056 8.74273 47.4722 8.87805 47.5705C8.9546 47.6261 9.04528 47.6544 9.13639 47.6544C9.20635 47.6544 9.27655 47.6378 9.34082 47.604L13.5 45.4173L17.659 47.6039C17.8071 47.6818 17.9865 47.6688 18.1218 47.5705C18.2571 47.4722 18.3249 47.3055 18.2967 47.1407L17.5022 42.5094L20.8673 39.2295C20.987 39.1128 21.0302 38.9381 20.9785 38.779Z" fill="white"/>
</g>
<g clip-path="url(#clip2_1545_4)">
<path d="M37.9871 21.4674C37.9561 21.372 37.8736 21.3024 37.7743 21.288L34.9842 20.8825L33.7364 18.3543C33.692 18.2643 33.6004 18.2074 33.5 18.2074C33.3996 18.2074 33.308 18.2643 33.2636 18.3543L32.0157 20.8825L29.2258 21.288C29.1265 21.3024 29.0439 21.372 29.0129 21.4674C28.9819 21.5629 29.0078 21.6677 29.0796 21.7377L31.0984 23.7056L30.6219 26.4844C30.605 26.5834 30.6456 26.6833 30.7268 26.7423C30.7728 26.7757 30.8272 26.7927 30.8818 26.7927C30.9238 26.7927 30.9659 26.7827 31.0045 26.7624L33.5 25.4504L35.9954 26.7624C36.0843 26.8091 36.1919 26.8013 36.2731 26.7423C36.3543 26.6833 36.395 26.5833 36.378 26.4844L35.9013 23.7056L37.9204 21.7377C37.9922 21.6677 38.0181 21.5629 37.9871 21.4674Z" fill="white"/>
</g>
<g clip-path="url(#clip3_1545_4)">
<path d="M119.99 17.6969C119.966 17.6226 119.902 17.5685 119.824 17.5573L117.654 17.242L116.684 15.2756C116.649 15.2056 116.578 15.1613 116.5 15.1613C116.422 15.1613 116.351 15.2056 116.316 15.2756L115.346 17.242L113.176 17.5573C113.098 17.5685 113.034 17.6226 113.01 17.6969C112.986 17.7711 113.006 17.8526 113.062 17.9071L114.632 19.4377L114.262 21.599C114.248 21.676 114.28 21.7537 114.343 21.7996C114.379 21.8255 114.421 21.8387 114.464 21.8387C114.496 21.8387 114.529 21.831 114.559 21.8152L116.5 20.7947L118.441 21.8152C118.51 21.8515 118.594 21.8455 118.657 21.7996C118.72 21.7537 118.752 21.6759 118.738 21.599L118.368 19.4377L119.938 17.9071C119.994 17.8526 120.014 17.7711 119.99 17.6969Z" fill="white"/>
</g>
<g clip-path="url(#clip4_1545_4)">
<path d="M162.994 68.5411C162.98 68.4986 162.944 68.4677 162.9 68.4613L161.66 68.2811L161.105 67.1575C161.085 67.1175 161.045 67.0922 161 67.0922C160.955 67.0922 160.915 67.1175 160.895 67.1575L160.34 68.2811L159.1 68.4613C159.056 68.4677 159.02 68.4986 159.006 68.5411C158.992 68.5835 159.003 68.6301 159.035 68.6612L159.933 69.5358L159.721 70.7709C159.713 70.8148 159.731 70.8593 159.767 70.8855C159.788 70.9003 159.812 70.9079 159.836 70.9079C159.855 70.9079 159.874 70.9034 159.891 70.8944L161 70.3113L162.109 70.8944C162.149 70.9151 162.196 70.9117 162.232 70.8855C162.269 70.8593 162.287 70.8148 162.279 70.7708L162.067 69.5358L162.965 68.6612C162.997 68.6301 163.008 68.5835 162.994 68.5411Z" fill="white"/>
</g>
<g clip-path="url(#clip5_1545_4)">
<path d="M161.981 31.0085C161.937 30.8706 161.817 30.7701 161.674 30.7493L157.644 30.1637L155.842 26.5118C155.777 26.3818 155.645 26.2995 155.5 26.2995C155.355 26.2995 155.223 26.3818 155.158 26.5118L153.356 30.1637L149.326 30.7493C149.183 30.7701 149.063 30.8706 149.019 31.0085C148.974 31.1464 149.011 31.2977 149.115 31.3989L152.031 34.2415L151.343 38.2553C151.318 38.3982 151.377 38.5426 151.494 38.6278C151.561 38.676 151.639 38.7005 151.718 38.7005C151.779 38.7005 151.84 38.6861 151.895 38.6568L155.5 36.7617L159.104 38.6567C159.233 38.7242 159.388 38.713 159.506 38.6278C159.623 38.5426 159.682 38.3981 159.657 38.2552L158.969 34.2415L161.885 31.3989C161.989 31.2977 162.026 31.1464 161.981 31.0085Z" fill="white"/>
</g>
<g clip-path="url(#clip6_1545_4)">
<path d="M14.9828 4.62324C14.9414 4.49595 14.8314 4.40318 14.699 4.38397L10.979 3.84338L9.31525 0.472449C9.25605 0.35245 9.13382 0.276489 9.00002 0.276489C8.86619 0.276489 8.74399 0.35245 8.68476 0.472449L7.02099 3.84338L3.301 4.38397C3.16861 4.40318 3.05857 4.49595 3.01722 4.62321C2.97586 4.7505 3.01036 4.89021 3.10619 4.98361L5.79793 7.60752L5.16259 11.3126C5.13995 11.4445 5.19418 11.5778 5.30244 11.6564C5.36368 11.7009 5.43622 11.7236 5.50911 11.7236C5.56508 11.7236 5.62124 11.7102 5.67266 11.6832L9 9.93385L12.3272 11.6831C12.4457 11.7454 12.5892 11.7351 12.6974 11.6564C12.8057 11.5778 12.86 11.4444 12.8373 11.3125L12.2018 7.60752L14.8938 4.98359C14.9896 4.89021 15.0242 4.7505 14.9828 4.62324Z" fill="white"/>
</g>
<defs>
<clipPath id="clip0_1545_4">
<rect width="6" height="6" fill="white" transform="translate(0 69)"/>
</clipPath>
<clipPath id="clip1_1545_4">
<rect width="15" height="15" fill="white" transform="translate(6 33)"/>
</clipPath>
<clipPath id="clip2_1545_4">
<rect width="9" height="9" fill="white" transform="translate(29 18)"/>
</clipPath>
<clipPath id="clip3_1545_4">
<rect width="7" height="7" fill="white" transform="translate(113 15)"/>
</clipPath>
<clipPath id="clip4_1545_4">
<rect width="4" height="4" fill="white" transform="translate(159 67)"/>
</clipPath>
<clipPath id="clip5_1545_4">
<rect width="13" height="13" fill="white" transform="translate(149 26)"/>
</clipPath>
<clipPath id="clip6_1545_4">
<rect width="12" height="12" fill="white" transform="translate(3)"/>
</clipPath>
</defs>
</svg>
